<svg width="101" height="28" viewBox="0 0 101 28" fill="none" xmlns="http://www.w3.org/2000/svg">
<path d="M99.901 0.473221C99.441 -0.159779 97.715 0.645221 97.715 0.645221C89.608 4.55622 78.222 3.52022 78.222 3.52022C72.529 3.34822 72.197 2.22322 67.239 1.56522C61.475 0.800221 58.88 4.19522 58.327 5.09322C53.723 4.44422 51.364 2.78922 50.174 1.87922C48.964 2.80722 46.53 4.51022 41.743 5.13122C41.24 4.29422 38.654 0.789221 32.807 1.56522C27.849 2.22322 27.517 3.34822 21.825 3.52022C21.825 3.52022 10.439 4.55622 2.33102 0.645221C2.33102 0.645221 0.605023 -0.159779 0.146023 0.473221C0.146023 0.473221 -1.29198 2.19822 4.86102 6.05122C4.86102 6.05122 3.17902 9.57222 11.074 11.0592C11.074 11.0592 15.011 11.7502 18.821 10.7562C18.821 10.7562 18.124 11.7152 18.821 12.5882C18.821 12.5882 14.721 13.2862 11.232 13.0242C11.232 13.0242 14.198 18.9562 24.753 18.8692C24.753 18.8692 24.215 19.4482 21.575 20.1012C21.575 20.1012 20.703 20.3472 22.011 20.8912C22.011 20.8912 24.597 21.8982 29.251 20.9182L26.371 23.4602C26.371 23.4602 25.957 23.7492 26.392 23.9892C27.211 24.4412 29.482 25.1742 32.631 23.3042C32.631 23.3042 31.837 26.1652 33.109 26.4832C33.109 26.4832 34.698 26.7212 37.004 24.7342C37.004 24.7342 36.957 27.4572 37.481 27.7552C37.481 27.7552 40.581 28.5092 43.683 24.4162C45.927 25.9142 48.406 27.2272 50.173 27.2272C51.885 27.2272 54.247 25.9652 56.418 24.4932C59.502 28.5022 62.564 27.7552 62.564 27.7552C63.03 27.6252 63.041 24.7342 63.041 24.7342C65.345 26.7212 66.935 26.4832 66.935 26.4832C68.206 26.1662 67.413 23.3042 67.413 23.3042C70.562 25.1732 72.833 24.4402 73.652 23.9892C74.088 23.7492 73.673 23.4602 73.673 23.4602L70.793 20.9182C75.448 21.8982 78.034 20.8912 78.034 20.8912C79.341 20.3472 78.469 20.1012 78.469 20.1012C75.829 19.4482 75.291 18.8692 75.291 18.8692C85.847 18.9562 88.812 13.0242 88.812 13.0242C85.323 13.2862 81.222 12.5882 81.222 12.5882C81.92 11.7152 81.222 10.7562 81.222 10.7562C84.801 11.7152 89 11.0382 89 11.0382C96.707 9.73922 95.187 6.05022 95.187 6.05022C101.339 2.19722 99.901 0.473221 99.901 0.473221V0.473221Z" fill="black"/>
<path d="M33.948 9.9C34.565 8.554 35.686 6.211 36.309 5.528C36.309 5.528 35.514 8.163 35.158 9.9H40.529C40.5073 9.53 40.3449 9.1823 40.0751 8.92815C39.8054 8.67399 39.4486 8.53262 39.078 8.533V5.346C39.452 5.333 39.813 5.313 40.164 5.288C39.466 4.449 37.66 2.727 34.54 2.639C31.795 2.561 28.42 3.911 28.42 3.911C28.42 3.911 22.217 6.483 11.015 4.388C11.015 4.388 8.57998 4.019 3.54798 2.146C3.54798 2.146 2.05598 1.486 2.29898 2.389C2.29898 2.389 2.95798 5.998 12.258 7.386C12.258 7.386 10.732 8.115 7.15698 8.323C7.15698 8.323 10.835 12.73 21.385 9.087C21.385 9.087 20.957 9.855 19.855 10.916C19.855 10.916 19.091 11.594 19.77 12.145C19.77 12.145 22.357 13.248 28.082 8.71C28.082 8.71 27.997 12.103 25.156 14.817C25.156 14.817 24.859 15.198 25.325 15.283C25.325 15.283 28.921 15.831 32.666 11.845V9.9H33.948V9.9ZM40.226 21.844C40.226 21.844 38.781 20.734 38.391 20.312C40.181 20.112 40.024 19.015 40.024 18.734H38.446C38.247 19.588 37.681 21.451 36.292 22.982C36.292 22.982 35.531 24.027 34.962 23.805C34.962 23.805 34.426 23.589 35.5 21.905C36.1476 20.8839 36.7336 19.825 37.255 18.734H35.78C35.077 19.561 33.016 21.796 30.685 22.538C30.685 22.538 33.221 20.176 34.107 18.734H32.86C31.418 20.511 29.59 22.21 28.666 22.995C28.256 23.342 28.496 23.726 28.757 23.762C31.708 24.161 35.505 20.33 35.505 20.33C33.299 24.188 34.063 24.952 34.063 24.952C34.996 25.588 38.643 22.619 38.643 22.619C38.232 24.438 38.216 25.405 38.151 26.266C38.077 27.245 38.918 26.887 39.212 26.715C41.045 25.64 42.01 23.715 42.177 23.361C41.94 23.1875 41.7043 23.0122 41.47 22.835C40.689 23.999 37.063 29.174 40.226 21.844V21.844ZM96.498 2.146C91.466 4.02 89.031 4.388 89.031 4.388C77.829 6.483 71.626 3.911 71.626 3.911C71.626 3.911 68.251 2.561 65.506 2.639C62.413 2.727 60.61 4.42 59.9 5.266C60.338 5.301 60.791 5.328 61.264 5.345V8.533C60.491 8.533 59.858 9.137 59.814 9.9H64.89C64.535 8.163 63.738 5.528 63.738 5.528C64.362 6.211 65.483 8.554 66.1 9.9H67.238V11.691C71.034 15.844 74.721 15.282 74.721 15.282C75.188 15.198 74.891 14.816 74.891 14.816C72.05 12.101 71.965 8.709 71.965 8.709C77.69 13.247 80.277 12.144 80.277 12.144C80.956 11.593 80.193 10.915 80.193 10.915C79.09 9.854 78.662 9.086 78.662 9.086C89.212 12.729 92.89 8.322 92.89 8.322C89.316 8.114 87.789 7.385 87.789 7.385C97.089 5.997 97.748 2.388 97.748 2.388C97.99 1.486 96.498 2.146 96.498 2.146V2.146ZM69.363 22.537C67.031 21.795 64.97 19.56 64.266 18.733H62.792C63.059 19.295 63.682 20.546 64.547 21.904C65.621 23.588 65.086 23.804 65.086 23.804C64.516 24.026 63.755 22.981 63.755 22.981C62.366 21.45 61.799 19.588 61.6 18.733H60.344C60.344 19.129 60.226 19.969 61.901 20.151C61.501 20.524 59.888 21.885 59.888 21.885C63.109 29.633 58.931 23.444 58.583 22.92C58.363 23.089 58.137 23.26 57.905 23.432C58.147 23.928 59.105 25.699 60.835 26.714C61.129 26.886 61.997 27.24 61.896 26.265C61.826 25.585 61.815 24.437 61.404 22.618C61.404 22.618 65.05 25.587 65.984 24.951C65.984 24.951 66.747 24.187 64.542 20.329C64.542 20.329 68.339 24.16 71.29 23.761C71.551 23.726 71.791 23.342 71.382 22.994C70.456 22.209 68.63 20.51 67.187 18.733H65.94C66.826 20.175 69.363 22.537 69.363 22.537V22.537Z" fill="#76787A"/>
<path d="M22.376 5.97776C17.966 9.45876 10.261 8.85476 10.261 8.85476C12.443 8.29776 15.135 6.90476 15.135 6.90476C8.40498 6.67376 5.47998 3.65576 5.47998 3.65576C5.47998 3.65576 12.813 6.53376 22.376 5.97776V5.97776ZM77.73 5.97776C82.139 9.45876 89.845 8.85476 89.845 8.85476C87.664 8.29776 84.971 6.90476 84.971 6.90476C91.701 6.67376 94.626 3.65576 94.626 3.65576C94.626 3.65576 87.292 6.53376 77.73 5.97776Z" fill="black"/>
<path d="M68.637 14.836C68.658 14.925 68.727 14.97 68.819 15.018C69.606 15.422 73.038 17.018 78.641 16.279C78.641 16.279 81.158 15.855 79.852 15.277C79.852 15.277 78.817 14.942 78.473 14.57C78.473 14.57 79.768 15.069 83.281 15.262C83.281 15.262 78.676 19.005 69.09 15.635C69.09 15.635 68.595 15.4 68.567 15.601C68.538 15.801 68.439 16.216 68.839 16.689C69.329 17.162 70.921 18.588 73.257 19.619C73.257 19.619 71.837 19.911 67.872 18.284C67.872 18.284 71.921 22.166 77.306 20.537C77.306 20.537 74.509 19.619 72.798 18.117C72.798 18.117 81.481 19.494 86.197 14.068C86.197 14.068 78.517 15.153 73.549 11.021C73.549 11.021 73.173 12.398 75.886 14.861C75.886 14.861 76.679 15.57 75.886 15.696C75.886 15.696 72.273 16.544 69.095 14.227C69.095 14.227 68.876 14.031 68.766 14.227C68.691 14.356 68.572 14.59 68.637 14.836V14.836ZM31.344 14.836C31.333 14.9 31.255 14.97 31.162 15.018C30.375 15.422 26.943 17.018 21.341 16.279C21.341 16.279 18.823 15.855 20.13 15.277C20.13 15.277 21.164 14.942 21.509 14.57C21.509 14.57 20.214 15.069 16.7 15.262C16.7 15.262 21.306 19.005 30.892 15.635C30.892 15.635 31.387 15.4 31.415 15.601C31.444 15.801 31.542 16.216 31.143 16.689C30.653 17.162 29.061 18.588 26.725 19.619C26.725 19.619 28.144 19.911 32.11 18.284C32.11 18.284 28.061 22.166 22.675 20.537C22.675 20.537 25.473 19.619 27.184 18.117C27.184 18.117 18.501 19.494 13.785 14.068C13.785 14.068 21.466 15.153 26.433 11.021C26.433 11.021 26.808 12.398 24.096 14.861C24.096 14.861 23.303 15.57 24.096 15.696C24.096 15.696 27.709 16.544 30.886 14.227C30.886 14.227 31.102 14.043 31.216 14.227C31.295 14.353 31.409 14.59 31.344 14.836V14.836Z" fill="#76787A"/>
<path d="M30.142 7.09901C30.071 8.10501 29.617 10.845 26.889 14.076C26.889 14.076 31.65 12.173 33.49 5.56301C33.49 5.56301 33.847 4.17701 32.74 3.95101C32.74 3.95101 31.165 3.68801 29.139 5.52601C29.139 5.52601 25.727 8.78801 22.163 10.101C22.163 10.101 23.605 11.146 29.774 6.94801C29.898 6.86201 30.16 6.83301 30.142 7.09901V7.09901ZM69.905 7.09901C69.976 8.10501 70.43 10.845 73.158 14.076C73.158 14.076 68.397 12.173 66.556 5.56301C66.556 5.56301 66.199 4.17701 67.307 3.95101C67.307 3.95101 68.882 3.68801 70.908 5.52601C70.908 5.52601 74.321 8.78801 77.884 10.101C77.884 10.101 76.442 11.146 70.272 6.94801C70.148 6.86201 69.887 6.83301 69.905 7.09901Z" fill="black"/>
<path d="M50.174 26.4628C52.761 26.4628 58.673 22.3188 60.628 20.3288C59.617 19.8828 59.451 19.2468 59.384 18.7328H58.572C58.622 19.2138 58.721 19.9628 59.384 20.4278C58.622 21.1568 52.895 25.7338 50.174 25.7338C47.457 25.7338 41.748 21.1568 40.986 20.4278C41.649 19.9628 41.749 19.2138 41.798 18.7328H40.986C40.919 19.2468 40.755 19.8818 39.742 20.3288C41.697 22.3188 47.59 26.4628 50.174 26.4628ZM50.174 3.66176C51.85 4.81376 54.992 6.30576 59.805 6.64476L59.803 7.54476C58.977 8.03376 58.416 8.87476 58.394 9.89976H59.109C59.136 8.99376 59.721 8.28076 60.532 7.98876L60.535 5.99976C54.574 5.68976 51.748 3.91676 50.174 2.80176C48.71 3.90176 45.769 5.68976 39.808 5.99976L39.806 7.98876C40.618 8.28076 41.207 8.99376 41.234 9.89976H41.95C41.928 8.87476 41.367 8.03376 40.54 7.54476L40.539 6.64476C45.776 6.17176 48.713 4.73476 50.174 3.66176V3.66176ZM33.472 10.6718H66.534V17.9518H33.472V10.6718Z" fill="#D9782D"/>
<path d="M33.912 11.1118H66.092V17.5108H33.912V11.1118Z" fill="black"/>
<path d="M42.812 9.89979V7.04479L43.59 6.90479L44.202 8.21179L44.881 6.63179L45.608 6.44079V9.89979H44.831V8.50179L44.227 9.90879L43.59 8.55179V9.89979H42.812ZM46.071 7.06979C46.063 6.57279 46.213 6.28379 46.544 6.15279L47.901 5.62979C48.314 5.48079 48.687 5.71279 48.687 6.07579V9.12179C48.687 9.73479 48.248 9.89979 47.909 9.89979H46.891C46.212 9.89979 46.063 9.41179 46.071 9.15479V7.06979ZM54.448 7.06979V9.15479C54.456 9.41179 54.306 9.89979 53.628 9.89979H52.61C52.27 9.89979 51.832 9.73479 51.832 9.12179V6.07579C51.832 5.71279 52.205 5.48079 52.619 5.62979L53.975 6.15179C54.307 6.28379 54.456 6.57279 54.448 7.06979V7.06979ZM48.787 5.25779L50.192 4.48779L51.683 5.29879V6.15879L50.657 5.60479V9.89979H49.813V5.55579L48.787 6.11779V5.25779ZM55.109 9.89979V6.49879L56.978 6.88879C57.245 6.94579 57.757 7.11879 57.757 7.63379V8.18679C57.757 8.38579 57.733 8.55979 57.484 8.68379C57.6 8.74979 57.757 8.97379 57.757 9.10579V9.89979H56.978V9.27879C56.978 9.08179 56.74 8.98979 56.631 8.98979H55.887V9.89979H55.109V9.89979ZM45.478 22.1338V22.9528L43.002 21.1028C42.9196 21.0434 42.8527 20.965 42.807 20.8744C42.7612 20.7837 42.7379 20.6834 42.739 20.5818V19.2598C42.739 18.9548 42.986 18.7078 43.292 18.7078H44.98V19.4838H43.759C43.7104 19.4838 43.6637 19.503 43.6292 19.5373C43.5948 19.5716 43.5753 19.6182 43.575 19.6668V20.5248C43.575 20.6098 43.61 20.6808 43.678 20.7328L45.478 22.1338ZM57.606 18.7068V19.4678H55.786C55.741 19.4678 55.703 19.5038 55.703 19.5468V20.0148C55.703 20.0608 55.741 20.0968 55.786 20.0968H57.524C57.578 20.0968 57.621 20.1388 57.621 20.1938V21.1528C57.6218 21.2053 57.6089 21.2572 57.5837 21.3033C57.5584 21.3494 57.5217 21.3881 57.477 21.4158L54.93 23.0358V22.3358L56.839 21.0688C56.8709 21.0474 56.8931 21.0143 56.9007 20.9767C56.9084 20.9391 56.901 20.9 56.88 20.8678C56.8667 20.8478 56.8485 20.8315 56.8272 20.8204C56.8058 20.8094 56.782 20.804 56.758 20.8048H55.287C55.2105 20.8027 55.1379 20.7708 55.0846 20.7158C55.0314 20.6609 55.0017 20.5873 55.002 20.5108V19.2348C55.002 18.9438 55.24 18.7078 55.532 18.7078H57.606V18.7068ZM46.246 20.9928L45.434 18.7078H46.224L46.648 20.0248L47.319 18.7078H48.065L47.015 21.0208V23.9158L46.246 23.4498V20.9928ZM50.088 19.5538H49.349C49.3116 19.5537 49.2746 19.5609 49.24 19.5751C49.2054 19.5893 49.174 19.6102 49.1475 19.6366C49.121 19.663 49.1 19.6944 49.0857 19.7289C49.0714 19.7634 49.064 19.8004 49.064 19.8378V23.5398C49.064 23.6608 49.128 23.7638 49.237 23.8178L50.134 24.2668V25.1748L48.61 24.4968C48.5045 24.4521 48.4148 24.3769 48.3522 24.2809C48.2897 24.1848 48.2573 24.0724 48.259 23.9578V19.4308C48.259 19.0318 48.584 18.7068 48.983 18.7068H50.088V19.5538ZM54.624 18.7078V19.5408H53.481V20.7268H54.301V21.4018H53.481V23.0248L54.476 22.5558V23.2738L53.116 23.9538C53.0822 23.9715 53.0443 23.9801 53.0061 23.9787C52.9679 23.9774 52.9308 23.9661 52.8983 23.946C52.8658 23.926 52.8391 23.8978 52.8208 23.8642C52.8025 23.8307 52.7933 23.793 52.794 23.7548V19.0118C52.794 18.8438 52.932 18.7088 53.1 18.7088H54.624V18.7078ZM51.551 18.7068V23.8558L52.414 23.5048V24.2938L50.939 24.9608C50.9102 24.9741 50.8784 24.98 50.8467 24.9777C50.815 24.9755 50.7844 24.9653 50.7577 24.948C50.7311 24.9307 50.7092 24.9069 50.6942 24.8789C50.6792 24.8509 50.6716 24.8196 50.672 24.7878V18.7058H51.551V18.7068Z" fill="#D9782D"/>
<path d="M55.888 7.41819V8.21219H56.807C56.955 8.21219 56.979 8.08019 56.979 7.93919C56.979 7.79919 56.979 7.64119 56.814 7.60819L55.888 7.41819V7.41819ZM53.487 6.81319L52.859 6.56519C52.742 6.51519 52.61 6.56519 52.61 6.74619V8.86619C52.61 9.00719 52.676 9.12219 52.849 9.12219H53.42C53.602 9.12219 53.668 9.03119 53.668 8.88219V7.19419C53.669 7.01219 53.652 6.89619 53.487 6.81319V6.81319ZM47.033 6.81319C46.867 6.89619 46.85 7.01119 46.85 7.19319V8.88119C46.85 9.02919 46.916 9.12119 47.097 9.12119H47.668C47.842 9.12119 47.908 9.00619 47.908 8.86519V6.74519C47.908 6.56419 47.776 6.51419 47.661 6.56419L47.033 6.81319V6.81319Z" fill="black"/>
<path d="M34.613 16.7069V12.0159H35.332V13.8919H35.901V12.0159H36.62V16.7069H35.901V14.6939H35.332V16.7069H34.613ZM37.394 12.0159H38.471L39.021 16.7069H38.295L38.168 15.4869H37.642L37.494 16.7069H36.843L37.394 12.0159ZM40.589 15.1379C40.589 14.8539 40.464 14.7639 40.005 14.7639V16.7069H39.286V12.0159H40.474C41.05 12.0159 41.306 12.2139 41.306 12.8199V13.4859C41.306 13.8349 41.242 14.1079 40.983 14.3059C40.989 14.3119 41 14.3229 41.014 14.3339C41.096 14.4039 41.299 14.5739 41.306 14.8449V16.7069H40.587L40.589 15.1379V15.1379ZM41.724 16.7069V12.0159H42.443V15.9649H43.174V16.7069H41.724ZM43.415 16.7069V12.0159H44.901V12.7479H44.135V13.8939H44.867V14.6359H44.135V15.9649H44.915V16.7069H43.415ZM46.103 13.6539L46.502 12.0159H47.173L46.434 14.9219V16.7069H45.715V14.9549L44.976 12.0159H45.715L46.103 13.6539ZM48.804 12.0159H49.673C50.386 12.0159 50.684 12.2519 50.684 13.0769V15.8569C50.684 16.3039 50.386 16.7069 49.83 16.7069H48.805V12.0159H48.804ZM55.187 12.0159H55.906V16.7069H55.187V12.0159ZM59.27 15.8209C59.27 16.0579 59.398 16.1109 59.548 16.1109C59.69 16.1109 59.825 16.0579 59.825 15.8209V15.3259C59.825 14.6669 58.541 14.4849 58.541 13.7199V12.7129C58.541 12.1009 59.098 11.9219 59.539 11.9219C59.986 11.9219 60.554 12.0999 60.554 12.7129V13.6079H59.834V12.9529C59.834 12.7159 59.689 12.6629 59.547 12.6629C59.397 12.6629 59.26 12.7159 59.26 12.9529V13.4729C59.26 13.8089 60.543 14.4029 60.543 14.8779V16.0069C60.543 16.6209 59.985 16.7989 59.538 16.7989C59.097 16.7989 58.55 16.6209 58.55 16.0069V14.9869H59.269V15.8209H59.27ZM61.868 16.7999C61.428 16.7999 60.861 16.6219 60.861 16.0079V12.7139C60.861 12.1019 61.427 11.9229 61.868 11.9229C62.309 11.9229 62.889 12.1009 62.889 12.7139V16.0079C62.89 16.6229 62.31 16.7999 61.868 16.7999ZM63.906 14.0359V16.7069H63.185V12.0159H64.157L64.627 14.4009V12.0159H65.36V16.7069H64.48L63.906 14.0359ZM47.1 14.0479H48.416V14.6399H47.1V14.0479ZM56.332 12.0159H57.202C57.913 12.0159 58.212 12.2519 58.212 13.0769V15.8569C58.212 16.3039 57.913 16.7069 57.358 16.7069H56.333V12.0159H56.332ZM54.333 12.0159H55.057L54.382 16.7069H53.577L52.901 12.0159H53.634L53.984 14.8359L54.333 12.0159ZM51.425 12.0159H52.503L53.053 16.7069H52.328L52.201 15.4869H51.674L51.527 16.7069H50.875L51.425 12.0159Z" fill="white"/>
<path d="M52.115 14.6948L51.952 12.5908L51.76 14.6948H52.115ZM57.052 15.9668H57.221C57.404 15.9668 57.493 15.9228 57.493 15.6178V13.1058C57.493 12.8018 57.403 12.7568 57.221 12.7568H57.052V15.9668V15.9668ZM61.876 16.0158C62.024 16.0158 62.17 15.9648 62.17 15.7258V12.9708C62.17 12.7338 62.024 12.6808 61.876 12.6808C61.726 12.6808 61.581 12.7338 61.581 12.9708V15.7258C61.581 15.9638 61.726 16.0158 61.876 16.0158V16.0158ZM49.523 15.9668H49.693C49.877 15.9668 49.964 15.9228 49.964 15.6178V13.1058C49.964 12.8018 49.876 12.7568 49.693 12.7568H49.523V15.9668V15.9668ZM40.005 14.0368H40.256C40.507 14.0368 40.562 13.8288 40.562 13.6578V12.9528C40.562 12.7748 40.453 12.6618 40.291 12.6618H40.006V14.0368H40.005ZM38.083 14.6948L37.921 12.5908L37.727 14.6948H38.083Z" fill="black"/>
</svg>
